<svg width="256" height="240" viewBox="0 0 256 240" fill="none" xmlns="http://www.w3.org/2000/svg">
<path d="M255.542 132.727C255.542 191.905 198.472 239.865 128 239.865C57.5285 239.865 0.458496 191.83 0.458496 132.727C0.458496 95.7594 22.7444 63.1588 56.7003 43.8845C61.5188 41.0988 35.2426 27.9983 39.0824 24.1585C47.0631 16.1777 88.4727 30.7087 94.7218 29.2782C105.338 26.8689 116.481 25.589 128 25.589C198.396 25.589 255.542 73.5488 255.542 132.727Z" fill="black"/>
<path d="M58.8837 121.584C62.7988 115.335 68.1444 97.6417 70.4031 90.9409C72.1348 85.6705 67.3915 74.0759 66.7892 68.5797C65.0575 53.8981 71.9089 49.6818 71.9842 43.2069C72.0595 40.7223 70.102 35.9037 69.4996 33.4192C68.9726 31.1605 68.7467 26.2666 67.3915 24.309C64.154 19.6411 53.0111 14.7472 48.8701 10.7568C47.289 9.17572 44.0516 4.50772 45.1809 2.55018C46.6114 -0.00968695 53.9146 1.34554 56.9262 1.19496C63.4011 1.04438 76.6522 2.09844 82.5248 4.7336C101.272 13.2414 129.054 45.4656 146.597 56.0815C153.524 60.2978 163.236 61.653 174.906 71.7419C183.489 79.1956 201.559 112.097 201.559 112.097L200.881 110.667C200.881 110.667 232.653 76.7863 230.244 85.9717C228.362 93.1243 217.821 112.248 217.821 112.248L214.057 130.393C214.057 130.393 209.615 140.03 207.883 143.117C206.377 145.752 204.57 148.463 204.57 148.463C204.57 148.463 205.85 168.565 206.227 173.835C206.452 177.6 201.107 183.021 198.698 185.957C193.277 192.507 179.348 199.208 171.819 203.274C163.161 207.942 145.769 218.784 135.906 219.461C129.958 219.838 118.89 214.266 113.394 212.007C109.328 210.351 101.649 206.135 97.4323 205.006C90.8821 203.199 83.8048 202.521 72.963 195.745C67.6927 192.432 65.1328 188.592 62.2718 179.106C60.0131 171.727 62.7235 165.252 62.7235 165.252C62.7235 165.252 53.5381 164.274 51.2041 162.467C47.289 159.304 42.5458 144.547 42.5458 144.547L36.5978 122.713C36.5978 122.713 26.2831 100.277 25.3796 95.4583C24.0244 88.2304 44.2021 107.505 49.8489 112.248C52.4841 114.431 57.2273 124.294 58.8837 121.584Z" fill="#F6F6F6" stroke="black" stroke-width="0.752902" stroke-miterlimit="10"/>
<path d="M106.693 182.343C107.672 181.891 109.479 184 115.652 187.162C116.481 187.613 120.396 189.571 124.612 190.926C126.871 191.679 130.861 192.733 139.595 193.336C144.715 193.637 152.545 194.239 162.709 192.959C174.831 191.529 182.058 188.592 182.435 189.195C182.811 189.947 173.099 193.787 163.989 197.401C154.879 201.015 151.491 202.069 148.554 202.897C140.122 205.156 136.282 205.608 134.851 205.608C131.238 205.758 126.946 205.984 122.429 204.253C117.083 202.22 114.523 198.756 111.737 194.992C107.973 189.797 105.037 183.096 106.693 182.343Z" fill="black"/>
<path d="M204.646 133.63C205.7 133.781 206.754 131.823 207.431 130.468C208.41 128.586 209.314 126.93 209.012 124.746C208.711 122.638 207.582 121.283 206.98 120.53C205.624 118.949 203.968 117.97 200.881 116.841C196.213 115.184 192.373 114.657 191.169 114.507C188.835 114.206 186.501 114.055 176.562 113.98C172.497 113.98 170.464 113.98 168.883 113.98C161.881 114.13 156.686 114.657 150.512 115.26C145.016 115.862 140.423 116.314 134.174 117.368C127.774 118.422 123.031 119.476 118.739 120.53C114.222 121.584 108.349 123.014 101.573 124.972C95.3242 126.779 94.7219 127.155 88.6987 129.038C87.9457 129.264 86.2141 129.791 83.8801 130.769C83.6542 130.845 82.6754 131.146 81.4708 131.823C81.0943 132.049 79.5132 132.878 79.5885 133.103C79.7391 133.405 82.0731 132.652 84.9341 131.899C85.7623 131.673 88.2469 131.146 93.2161 130.092C95.1736 129.64 100.218 128.586 106.618 127.457C112.792 126.403 117.61 125.725 119.492 125.499C121.977 125.198 126.043 124.671 131.463 124.219C134.023 123.993 136.508 123.843 141.552 123.542C146.597 123.24 149.157 123.09 151.566 123.014C155.933 122.864 156.159 123.014 164.441 122.864C170.765 122.789 171.066 122.713 174.831 122.713C176.412 122.713 180.026 122.789 184.543 122.939C186.124 123.014 187.479 123.09 190.115 123.316C193.126 123.542 194.03 123.692 195.31 123.993C197.117 124.445 198.472 124.821 199.827 125.951C201.107 127.08 201.709 128.36 201.86 128.586C202.462 129.791 202.312 130.393 203.064 131.748C203.591 132.802 204.043 133.555 204.646 133.63Z" fill="black"/>
<path d="M38.1788 110.215C38.9317 109.688 43.9762 114.808 47.3642 119.626C50.15 123.541 51.7311 126.93 52.4087 128.586C57.0767 139.578 57.2273 151.173 56.1732 151.399C55.345 151.549 54.4415 144.472 49.3971 132.576C43.4492 118.648 37.2754 110.893 38.1788 110.215Z" fill="black"/>
<path d="M155.105 166.005C166.323 166.909 199.526 166.683 200.58 164.349C200.881 163.671 166.323 151.399 166.323 151.399C166.323 151.399 195.761 159.078 205.398 164.575C206.076 164.951 203.516 165.855 202.763 166.005C190.491 168.414 160.149 170.297 153.147 168.264C152.093 167.963 154.352 165.93 155.105 166.005Z" fill="black"/>
<path d="M117.459 147.408C117.459 147.408 126.795 139.729 130.635 139.729C134.475 139.729 143.811 147.408 143.811 147.408C143.811 147.408 133.948 145.526 130.635 145.526C127.322 145.526 117.459 147.408 117.459 147.408Z" fill="black"/>
<path d="M172.045 147.785C172.045 147.785 181.381 140.105 185.22 140.105C189.06 140.105 198.396 147.785 198.396 147.785C198.396 147.785 188.533 145.903 185.22 145.903C181.908 145.903 172.045 147.785 172.045 147.785Z" fill="black"/>
</svg>
